<svg width="132" height="46" viewBox="0 0 132 46" fill="none" xmlns="http://www.w3.org/2000/svg">
<path d="M4.68 18L0.024 5.088H3.552L7.416 16.2H5.736L9.768 5.088H12.936L16.848 16.2H15.168L19.152 5.088H22.464L17.784 18H14.16L10.728 8.472H11.832L8.28 18H4.68ZM30.501 18.192C29.029 18.192 27.733 17.904 26.613 17.328C25.509 16.752 24.653 15.968 24.045 14.976C23.437 13.968 23.133 12.824 23.133 11.544C23.133 10.248 23.429 9.104 24.021 8.112C24.629 7.104 25.453 6.32 26.493 5.76C27.533 5.184 28.709 4.896 30.021 4.896C31.285 4.896 32.421 5.168 33.429 5.712C34.453 6.24 35.261 7.008 35.853 8.016C36.445 9.008 36.741 10.2 36.741 11.592C36.741 11.736 36.733 11.904 36.717 12.096C36.701 12.272 36.685 12.44 36.669 12.6H26.181V10.416H34.701L33.261 11.064C33.261 10.392 33.125 9.808 32.853 9.312C32.581 8.816 32.205 8.432 31.725 8.16C31.245 7.872 30.685 7.728 30.045 7.728C29.405 7.728 28.837 7.872 28.341 8.16C27.861 8.432 27.485 8.824 27.213 9.336C26.941 9.832 26.805 10.424 26.805 11.112V11.688C26.805 12.392 26.957 13.016 27.261 13.56C27.581 14.088 28.021 14.496 28.581 14.784C29.157 15.056 29.829 15.192 30.597 15.192C31.285 15.192 31.885 15.088 32.397 14.88C32.925 14.672 33.405 14.36 33.837 13.944L35.829 16.104C35.237 16.776 34.493 17.296 33.597 17.664C32.701 18.016 31.669 18.192 30.501 18.192ZM47.1056 18.192C45.9696 18.192 44.9936 17.952 44.1776 17.472C43.3616 16.992 42.7376 16.264 42.3056 15.288C41.8736 14.296 41.6576 13.048 41.6576 11.544C41.6576 10.024 41.8816 8.776 42.3296 7.8C42.7936 6.824 43.4336 6.096 44.2496 5.616C45.0656 5.136 46.0176 4.896 47.1056 4.896C48.3216 4.896 49.4096 5.168 50.3696 5.712C51.3456 6.256 52.1136 7.024 52.6736 8.016C53.2496 9.008 53.5376 10.184 53.5376 11.544C53.5376 12.888 53.2496 14.056 52.6736 15.048C52.1136 16.04 51.3456 16.816 50.3696 17.376C49.4096 17.92 48.3216 18.192 47.1056 18.192ZM39.4736 18V0.191999H43.2176V7.704L42.9776 11.52L43.0496 15.36V18H39.4736ZM46.4576 15.12C47.0816 15.12 47.6336 14.976 48.1136 14.688C48.6096 14.4 49.0016 13.992 49.2896 13.464C49.5936 12.92 49.7456 12.28 49.7456 11.544C49.7456 10.792 49.5936 10.152 49.2896 9.624C49.0016 9.096 48.6096 8.688 48.1136 8.4C47.6336 8.112 47.0816 7.968 46.4576 7.968C45.8336 7.968 45.2736 8.112 44.7776 8.4C44.2816 8.688 43.8896 9.096 43.6016 9.624C43.3136 10.152 43.1696 10.792 43.1696 11.544C43.1696 12.28 43.3136 12.92 43.6016 13.464C43.8896 13.992 44.2816 14.4 44.7776 14.688C45.2736 14.976 45.8336 15.12 46.4576 15.12ZM60.6279 18.192C59.5239 18.192 58.4599 18.064 57.4359 17.808C56.4279 17.536 55.6279 17.2 55.0359 16.8L56.2839 14.112C56.8759 14.48 57.5719 14.784 58.3719 15.024C59.1879 15.248 59.9879 15.36 60.7719 15.36C61.6359 15.36 62.2439 15.256 62.5959 15.048C62.9639 14.84 63.1479 14.552 63.1479 14.184C63.1479 13.88 63.0039 13.656 62.7159 13.512C62.4439 13.352 62.0759 13.232 61.6119 13.152C61.1479 13.072 60.6359 12.992 60.0759 12.912C59.5319 12.832 58.9799 12.728 58.4199 12.6C57.8599 12.456 57.3479 12.248 56.8839 11.976C56.4199 11.704 56.0439 11.336 55.7559 10.872C55.4839 10.408 55.3479 9.808 55.3479 9.072C55.3479 8.256 55.5799 7.536 56.0439 6.912C56.5239 6.288 57.2119 5.8 58.1079 5.448C59.0039 5.08 60.0759 4.896 61.3239 4.896C62.2039 4.896 63.0999 4.992 64.0119 5.184C64.9239 5.376 65.6839 5.656 66.2919 6.024L65.0439 8.688C64.4199 8.32 63.7879 8.072 63.1479 7.944C62.5239 7.8 61.9159 7.728 61.3239 7.728C60.4919 7.728 59.8839 7.84 59.4999 8.064C59.1159 8.288 58.9239 8.576 58.9239 8.928C58.9239 9.248 59.0599 9.488 59.3319 9.648C59.6199 9.808 59.9959 9.936 60.4599 10.032C60.9239 10.128 61.4279 10.216 61.9719 10.296C62.5319 10.36 63.0919 10.464 63.6519 10.608C64.2119 10.752 64.7159 10.96 65.1639 11.232C65.6279 11.488 66.0039 11.848 66.2919 12.312C66.5799 12.76 66.7239 13.352 66.7239 14.088C66.7239 14.888 66.4839 15.6 66.0039 16.224C65.5239 16.832 64.8279 17.312 63.9159 17.664C63.0199 18.016 61.9239 18.192 60.6279 18.192ZM77.1219 4.896C78.1459 4.896 79.0579 5.104 79.8579 5.52C80.6739 5.92 81.3139 6.544 81.7779 7.392C82.2419 8.224 82.4739 9.296 82.4739 10.608V18H78.7299V11.184C78.7299 10.144 78.4979 9.376 78.0339 8.88C77.5859 8.384 76.9459 8.136 76.1139 8.136C75.5219 8.136 74.9859 8.264 74.5059 8.52C74.0419 8.76 73.6739 9.136 73.4019 9.648C73.1459 10.16 73.0179 10.816 73.0179 11.616V18H69.2739V0.191999H73.0179V8.664L72.1779 7.584C72.6419 6.72 73.3059 6.056 74.1699 5.592C75.0339 5.128 76.0179 4.896 77.1219 4.896ZM94.0277 18V15.48L93.7877 14.928V10.416C93.7877 9.616 93.5397 8.992 93.0437 8.544C92.5637 8.096 91.8197 7.872 90.8117 7.872C90.1237 7.872 89.4437 7.984 88.7717 8.208C88.1157 8.416 87.5557 8.704 87.0917 9.072L85.7477 6.456C86.4517 5.96 87.2997 5.576 88.2917 5.304C89.2837 5.032 90.2917 4.896 91.3157 4.896C93.2837 4.896 94.8117 5.36 95.8997 6.288C96.9877 7.216 97.5317 8.664 97.5317 10.632V18H94.0277ZM90.0917 18.192C89.0837 18.192 88.2197 18.024 87.4997 17.688C86.7797 17.336 86.2277 16.864 85.8437 16.272C85.4597 15.68 85.2677 15.016 85.2677 14.28C85.2677 13.512 85.4517 12.84 85.8197 12.264C86.2037 11.688 86.8037 11.24 87.6197 10.92C88.4357 10.584 89.4997 10.416 90.8117 10.416H94.2437V12.6H91.2197C90.3397 12.6 89.7317 12.744 89.3957 13.032C89.0757 13.32 88.9157 13.68 88.9157 14.112C88.9157 14.592 89.0997 14.976 89.4677 15.264C89.8517 15.536 90.3717 15.672 91.0277 15.672C91.6517 15.672 92.2117 15.528 92.7077 15.24C93.2037 14.936 93.5637 14.496 93.7877 13.92L94.3637 15.648C94.0917 16.48 93.5957 17.112 92.8757 17.544C92.1557 17.976 91.2277 18.192 90.0917 18.192ZM101.16 18V5.088H104.736V8.736L104.232 7.68C104.616 6.768 105.232 6.08 106.08 5.616C106.928 5.136 107.96 4.896 109.176 4.896V8.352C109.016 8.336 108.872 8.328 108.744 8.328C108.616 8.312 108.48 8.304 108.336 8.304C107.312 8.304 106.48 8.6 105.84 9.192C105.216 9.768 104.904 10.672 104.904 11.904V18H101.16ZM114.762 15.36L114.858 10.8L120.882 5.088H125.346L119.562 10.968L117.618 12.552L114.762 15.36ZM111.666 18V0.191999H115.41V18H111.666ZM121.29 18L116.922 12.576L119.274 9.672L125.826 18H121.29ZM129.4 18.192C128.76 18.192 128.208 17.976 127.744 17.544C127.296 17.096 127.072 16.528 127.072 15.84C127.072 15.152 127.296 14.6 127.744 14.184C128.208 13.752 128.76 13.536 129.4 13.536C130.056 13.536 130.608 13.752 131.056 14.184C131.504 14.6 131.728 15.152 131.728 15.84C131.728 16.528 131.504 17.096 131.056 17.544C130.608 17.976 130.056 18.192 129.4 18.192ZM2.184 45V31.8C2.184 30.344 2.616 29.184 3.48 28.32C4.344 27.44 5.576 27 7.176 27C7.72 27 8.24 27.056 8.736 27.168C9.248 27.28 9.68 27.456 10.032 27.696L9.048 30.408C8.84 30.264 8.608 30.152 8.352 30.072C8.096 29.992 7.824 29.952 7.536 29.952C6.992 29.952 6.568 30.112 6.264 30.432C5.976 30.736 5.832 31.2 5.832 31.824V33.024L5.928 34.632V45H2.184ZM0.192 35.256V32.376H9.144V35.256H0.192ZM11.256 45V32.088H15V45H11.256ZM13.128 30.288C12.44 30.288 11.88 30.088 11.448 29.688C11.016 29.288 10.8 28.792 10.8 28.2C10.8 27.608 11.016 27.112 11.448 26.712C11.88 26.312 12.44 26.112 13.128 26.112C13.816 26.112 14.376 26.304 14.808 26.688C15.24 27.056 15.456 27.536 15.456 28.128C15.456 28.752 15.24 29.272 14.808 29.688C14.392 30.088 13.832 30.288 13.128 30.288ZM23.9824 45.192C22.4624 45.192 21.2784 44.808 20.4304 44.04C19.5824 43.256 19.1584 42.096 19.1584 40.56V29.232H22.9024V40.512C22.9024 41.056 23.0464 41.48 23.3344 41.784C23.6224 42.072 24.0144 42.216 24.5104 42.216C25.1024 42.216 25.6064 42.056 26.0224 41.736L27.0304 44.376C26.6464 44.648 26.1824 44.856 25.6384 45C25.1104 45.128 24.5584 45.192 23.9824 45.192ZM17.1664 35.256V32.376H26.1184V35.256H17.1664ZM37.2201 31.896C38.2441 31.896 39.1561 32.104 39.9561 32.52C40.7721 32.92 41.4121 33.544 41.8761 34.392C42.3401 35.224 42.5721 36.296 42.5721 37.608V45H38.8281V38.184C38.8281 37.144 38.5961 36.376 38.1321 35.88C37.6841 35.384 37.0441 35.136 36.2121 35.136C35.6201 35.136 35.0841 35.264 34.6041 35.52C34.1401 35.76 33.7721 36.136 33.5001 36.648C33.2441 37.16 33.1161 37.816 33.1161 38.616V45H29.3721V32.088H32.9481V35.664L32.2761 34.584C32.7401 33.72 33.4041 33.056 34.2681 32.592C35.1321 32.128 36.1161 31.896 37.2201 31.896ZM52.7076 45.192C51.2356 45.192 49.9396 44.904 48.8196 44.328C47.7156 43.752 46.8596 42.968 46.2516 41.976C45.6436 40.968 45.3396 39.824 45.3396 38.544C45.3396 37.248 45.6356 36.104 46.2276 35.112C46.8356 34.104 47.6596 33.32 48.6996 32.76C49.7396 32.184 50.9156 31.896 52.2276 31.896C53.4916 31.896 54.6276 32.168 55.6356 32.712C56.6596 33.24 57.4676 34.008 58.0596 35.016C58.6516 36.008 58.9476 37.2 58.9476 38.592C58.9476 38.736 58.9396 38.904 58.9236 39.096C58.9076 39.272 58.8916 39.44 58.8756 39.6H48.3876V37.416H56.9076L55.4676 38.064C55.4676 37.392 55.3316 36.808 55.0596 36.312C54.7876 35.816 54.4116 35.432 53.9316 35.16C53.4516 34.872 52.8916 34.728 52.2516 34.728C51.6116 34.728 51.0436 34.872 50.5476 35.16C50.0676 35.432 49.6916 35.824 49.4196 36.336C49.1476 36.832 49.0116 37.424 49.0116 38.112V38.688C49.0116 39.392 49.1636 40.016 49.4676 40.56C49.7876 41.088 50.2276 41.496 50.7876 41.784C51.3636 42.056 52.0356 42.192 52.8036 42.192C53.4916 42.192 54.0916 42.088 54.6036 41.88C55.1316 41.672 55.6116 41.36 56.0436 40.944L58.0356 43.104C57.4436 43.776 56.6996 44.296 55.8036 44.664C54.9076 45.016 53.8756 45.192 52.7076 45.192ZM66.0242 45.192C64.9202 45.192 63.8562 45.064 62.8322 44.808C61.8242 44.536 61.0242 44.2 60.4322 43.8L61.6802 41.112C62.2722 41.48 62.9682 41.784 63.7682 42.024C64.5842 42.248 65.3842 42.36 66.1682 42.36C67.0322 42.36 67.6402 42.256 67.9922 42.048C68.3602 41.84 68.5442 41.552 68.5442 41.184C68.5442 40.88 68.4002 40.656 68.1122 40.512C67.8402 40.352 67.4722 40.232 67.0082 40.152C66.5442 40.072 66.0322 39.992 65.4722 39.912C64.9282 39.832 64.3762 39.728 63.8162 39.6C63.2562 39.456 62.7442 39.248 62.2802 38.976C61.8162 38.704 61.4402 38.336 61.1522 37.872C60.8802 37.408 60.7442 36.808 60.7442 36.072C60.7442 35.256 60.9762 34.536 61.4402 33.912C61.9202 33.288 62.6082 32.8 63.5042 32.448C64.4002 32.08 65.4722 31.896 66.7202 31.896C67.6002 31.896 68.4962 31.992 69.4082 32.184C70.3202 32.376 71.0802 32.656 71.6882 33.024L70.4402 35.688C69.8162 35.32 69.1842 35.072 68.5442 34.944C67.9202 34.8 67.3122 34.728 66.7202 34.728C65.8882 34.728 65.2802 34.84 64.8962 35.064C64.5122 35.288 64.3202 35.576 64.3202 35.928C64.3202 36.248 64.4562 36.488 64.7282 36.648C65.0162 36.808 65.3922 36.936 65.8562 37.032C66.3202 37.128 66.8242 37.216 67.3682 37.296C67.9282 37.36 68.4882 37.464 69.0482 37.608C69.6082 37.752 70.1122 37.96 70.5602 38.232C71.0242 38.488 71.4002 38.848 71.6882 39.312C71.9762 39.76 72.1202 40.352 72.1202 41.088C72.1202 41.888 71.8802 42.6 71.4002 43.224C70.9202 43.832 70.2242 44.312 69.3122 44.664C68.4162 45.016 67.3202 45.192 66.0242 45.192ZM79.0142 45.192C77.9102 45.192 76.8462 45.064 75.8222 44.808C74.8142 44.536 74.0142 44.2 73.4222 43.8L74.6702 41.112C75.2622 41.48 75.9582 41.784 76.7582 42.024C77.5742 42.248 78.3742 42.36 79.1582 42.36C80.0222 42.36 80.6302 42.256 80.9822 42.048C81.3502 41.84 81.5342 41.552 81.5342 41.184C81.5342 40.88 81.3902 40.656 81.1022 40.512C80.8302 40.352 80.4622 40.232 79.9982 40.152C79.5342 40.072 79.0222 39.992 78.4622 39.912C77.9182 39.832 77.3662 39.728 76.8062 39.6C76.2462 39.456 75.7342 39.248 75.2702 38.976C74.8062 38.704 74.4302 38.336 74.1422 37.872C73.8702 37.408 73.7342 36.808 73.7342 36.072C73.7342 35.256 73.9662 34.536 74.4302 33.912C74.9102 33.288 75.5982 32.8 76.4942 32.448C77.3902 32.08 78.4622 31.896 79.7102 31.896C80.5902 31.896 81.4862 31.992 82.3982 32.184C83.3102 32.376 84.0702 32.656 84.6782 33.024L83.4302 35.688C82.8062 35.32 82.1742 35.072 81.5342 34.944C80.9102 34.8 80.3022 34.728 79.7102 34.728C78.8782 34.728 78.2702 34.84 77.8862 35.064C77.5022 35.288 77.3102 35.576 77.3102 35.928C77.3102 36.248 77.4462 36.488 77.7182 36.648C78.0062 36.808 78.3822 36.936 78.8462 37.032C79.3102 37.128 79.8142 37.216 80.3582 37.296C80.9182 37.36 81.4782 37.464 82.0382 37.608C82.5982 37.752 83.1022 37.96 83.5502 38.232C84.0142 38.488 84.3902 38.848 84.6782 39.312C84.9662 39.76 85.1102 40.352 85.1102 41.088C85.1102 41.888 84.8702 42.6 84.3902 43.224C83.9102 43.832 83.2142 44.312 82.3022 44.664C81.4062 45.016 80.3102 45.192 79.0142 45.192Z" fill="#F6F6F6"/>
</svg>
